<?xml version="1.0" encoding="iso-8859-1"?>
<!-- Generator: Adobe Illustrator 16.0.4, SVG Export Plug-In . SVG Version: 6.00 Build 0)  -->
<!DOCTYPE svg PUBLIC "-//W3C//DTD SVG 1.1//EN" "http://www.w3.org/Graphics/SVG/1.1/DTD/svg11.dtd">
<svg version="1.1" id="Layer_1" xmlns="http://www.w3.org/2000/svg" xmlns:xlink="http://www.w3.org/1999/xlink" x="0px" y="0px"
	 width="415px" height="559.166px" viewBox="0 0 415 559.166" style="enable-background:new 0 0 415 559.166;" xml:space="preserve"
	>
<g id="HwPyDH_1_" style="display:none;">
	
		<image style="display:inline;overflow:visible;" width="449" height="736" id="HwPyDH_2_" xlink:href="6C5E9C045EA86F8A.jpg"  transform="matrix(1 0 0 1 -33.9995 -10.3345)">
	</image>
</g>
<path style="fill:#F8D96E;stroke:#000000;stroke-width:2;stroke-miterlimit:10;" d="M100.665,244
	c-2.333-20.667-19-125.333,7.667-159.333c20.333-20.667,36.667-4,37,4.667s1,15.333,1,15.333
	C108,131.999,101.038,305.316,105.334,408.666c0.333,8-1.667,13,13.666,14c4.137,0.27,7.979,0.394,11.389,0.431
	C141.531,409.667,150,400.166,150,400.166s23.5-30.75,43.5-32c0,0,4.75-53,0.25-86.25c-20.75,6.25-45-14.5-35-45
	c9.475-28.897,38.75-9.75,44.75,9c13.5-12.5,12.5-85.25,3.75-114.75c12,6,40.5,5.5,66.75-3s95.5-16,105.5,9
	c0.399,0.999,0.787,2.062,1.167,3.151l0.006-0.003c24.659-5.647,9.66-76.313-62.007-98.647S190,56.667,185,60.333
	c-1.334,3.667-4.001,0.334-4.001,0.334c-24.667-47-67.667-67-106-56.333S13.665,61.192,9.332,120.097s-7.333,94.238-7.333,104.238
	s-4,19.667,7.333,20.333s22.667-5.667,34.333-2.667s27,16.667,38,17.333S102.998,264.667,100.665,244z"/>
<path style="fill:#F8C790;stroke:#000000;stroke-width:2;stroke-miterlimit:10;" d="M331,299.416c43.5,3.25,44.25,0,53.5-41.5
	s5-95.75-5-120.75s-79.25-17.5-105.5-9s-54.75,9-66.75,3c8.75,29.5,9.75,102.25-3.75,114.75c-6-18.75-35.275-37.897-44.75-9
	c-10,30.5,14.25,51.25,35,45c4.5,33.25-0.25,86.25-0.25,86.25c-20,1.25-43.5,32-43.5,32s-57.5,64.5-70,95s11,64,11,64h69.5h227
	c12.5-36.5-24.5-84-30.5-96.5s-46-72.5-46-72.5c3.394-22.136,12.828-47.666,18.25-50.534c14-6.216,22-17.216-8.5-17.716
	C313.75,316.916,331,299.416,331,299.416z"/>
<path style="fill:#6B3133;stroke:#000000;stroke-miterlimit:10;" d="M110.819,447.536c-4.345-0.105-8.579,0.458-12.484,1.797
	c-4.975,2.842-3.888,13.334-2.843,19.17C100.198,461.644,105.463,454.505,110.819,447.536z"/>
<path style="fill:#DD8B63;stroke:#000000;stroke-width:2;stroke-miterlimit:10;" d="M287.25,339.631
	c16.932,1.358,29.375,2.397,41.407,0.397c0.202-0.158,0.4-0.295,0.593-0.397c14-6.216,22-17.216-8.5-17.716
	c-7-5,10.25-22.5,10.25-22.5c24.534,1.833,35.469,1.597,42-6.401c-11.001-12.848-21.75-6.849-33-5.849s-17-4.75-26.5-5.5
	s-36,0.75-48.75,14.75s-16.75,19.5-13.5,24.5S265,337.847,287.25,339.631z"/>
<path style="fill:#6C2521;stroke:#000000;stroke-width:2;stroke-miterlimit:10;" d="M266.878,294.317
	c-0.741,0.668-1.458,1.362-2.128,2.098c-12.75,14-16.75,19.5-13.5,24.5c0.418,0.643,0.957,1.4,1.623,2.235
	c15.193,3.834,72.676-1.157,67.877-1.235c-7-5,10.25-22.5,10.25-22.5C306.342,294.708,280.889,290.61,266.878,294.317z"/>
<path style="fill:#E27972;stroke:#000000;stroke-miterlimit:10;" d="M252.083,322.111c0.201,0.274,0.419,0.561,0.652,0.857
	c0.048,0.062,0.094,0.122,0.144,0.184c9.416,2.374,29.705,1.621,48.729,0.753c-4.596-13.434-32.938-20.814-49.42-12.164
	c-0.878,1.46-1.463,2.752-1.765,3.932c-0.001,0.004-0.003,0.009-0.004,0.013c-0.097,0.378-0.16,0.744-0.198,1.102
	c-0.002,0.016-0.006,0.034-0.008,0.05c-0.034,0.34-0.035,0.669-0.017,0.994c0.002,0.031-0.002,0.063,0,0.094
	c0.022,0.304,0.077,0.6,0.146,0.893c0.011,0.047,0.013,0.095,0.025,0.142c0.071,0.277,0.176,0.547,0.288,0.816
	c0.024,0.059,0.038,0.119,0.064,0.177c0.147,0.324,0.323,0.644,0.53,0.962c0.187,0.287,0.406,0.604,0.642,0.934
	C251.953,321.935,252.019,322.023,252.083,322.111z"/>
<path style="fill:none;stroke:#000000;stroke-width:2;stroke-miterlimit:10;" d="M317.833,257.37
	c1,20.462,25.168,32.129,35.834,15.129s0-40.167,0-40.167"/>
<path style="fill:#91B591;" d="M252.68,211.524c0,0.002,0.001,0.005,0.002,0.007c2.46-15.81,15.317-27.866,30.818-27.866
	c13.089,0,24.291,8.597,28.944,20.79l0.002-0.002c0.055-14.958-4.779-28.291-10.779-33.958c-7.666,2.5-25.5,4.667-32.833,1.667h-2.5
	C266.334,172.163,251.026,198.72,252.68,211.524z"/>
<path style="fill:#91B490;" d="M377.5,172.996c-0.667,0.333-8,13.833-7.589,32.833h0.006c4.393-7.821,11.113-12.704,18.382-12.303
	c0.344,0.019,0.685,0.05,1.023,0.093c-0.31-6.88-0.856-13.572-1.613-19.924C387.639,173.688,378.165,172.664,377.5,172.996z"/>
<ellipse style="fill:#FFFFFF;stroke:#000000;stroke-width:2;stroke-miterlimit:10;" cx="283.5" cy="217.041" rx="31.25" ry="33.375"/>
<ellipse transform="matrix(-0.9985 -0.0551 0.0551 -0.9985 760.0795 471.8136)" style="fill:#FFFFFF;stroke:#000000;stroke-width:2;stroke-miterlimit:10;" cx="386.539" cy="225.437" rx="21.781" ry="31.959"/>
<ellipse cx="391.698" cy="226.666" rx="2.636" ry="3.167"/>
<path style="fill:none;stroke:#000000;stroke-width:2;stroke-miterlimit:10;" d="M263.169,170.496
	c17.333,7.503,40.333,1.836,43.333-0.997"/>
<ellipse cx="300.169" cy="217.041" rx="2.636" ry="3.167"/>
<path style="fill:none;stroke:#000000;stroke-width:2;stroke-miterlimit:10;" d="M374.501,171.496
	c15,2.337,28.167,2.434,28.167,2.434"/>
<path style="fill:none;stroke:#000000;stroke-width:2;stroke-miterlimit:10;" d="M380.084,172.863c13.334,2.637,17,6.97,17,6.97"/>
<path style="fill:none;stroke:#000000;stroke-width:2;stroke-miterlimit:10;" d="M402.177,202.21
	c6.156-2.21,8.989-7.043,8.989-7.043"/>
<path style="fill:none;stroke:#000000;stroke-width:2;stroke-miterlimit:10;" d="M405.552,208.578
	c4.114,0.089,9.448-4.078,9.448-4.078"/>
<path style="fill:none;stroke:#000000;stroke-width:2;stroke-miterlimit:10;" d="M407.472,215.104
	c4.361,1.563,7.528-2.79,7.528-2.79"/>
<path style="fill:none;stroke:#000000;stroke-width:2;stroke-miterlimit:10;" d="M258.305,197.313
	c-6.305-3.814-8.638-7.934-8.638-7.934"/>
<path style="fill:none;stroke:#000000;stroke-width:2;stroke-miterlimit:10;" d="M244,200.667c5.5,5,9.986,5.417,9.986,5.417"/>
<path style="fill:none;stroke:#000000;stroke-width:2;stroke-miterlimit:10;" d="M241.5,213.167c6.667,2.5,10.75,2.333,10.75,2.333"
	/>
<path style="fill:none;stroke:#000000;stroke-width:2;stroke-miterlimit:10;" d="M169.667,233.667
	c17.667,1.167,24.666,15.667,24,27.667"/>
<path style="fill:none;stroke:#000000;stroke-width:2;stroke-miterlimit:10;" d="M183.053,238.088
	c-9.22-2.754-12.386,1.912-12.386,1.912"/>
<path style="fill:none;stroke:#000000;stroke-width:2;stroke-miterlimit:10;" d="M285.5,365.167
	c13.666,6.5,26.236,4.487,30.868,1.577"/>
<path style="fill:#CB4577;stroke:#000000;stroke-width:2;stroke-miterlimit:10;" d="M98.335,449.333
	c0,0,32.333-41.334,40.333-47.667S167.335,400,188.335,428s27.063,23.666,44.865,19.666s55.467-20.334,77.801-57.5
	c3.335-4.834,9.335,6.833,14.668,14.166s30,45.999,31,49.333s10.334,17.334-20.333,36.667c12,13.999,36.999,56.669,35.333,68.834
	H160.5c-20.166-29.168-22.166-47.168-22.166-47.168c8.667-16,19.333-23.667,19.333-23.667
	C156.668,460.664,121.668,441.334,98.335,449.333z"/>
<path style="fill:none;stroke:#000000;stroke-width:2;stroke-miterlimit:10;" d="M193.5,368.166
	c7.166-0.165,21.833,4.834,22.833,12.668"/>
<path style="fill:#A384AF;stroke:#000000;stroke-width:2;stroke-miterlimit:10;" d="M145.381,90.556
	c6.119,7.234,21.369,8.359,29.744-2.766s5.157-28.762,2.878-32.544s8.747-3.581,12.497,4.794s3.75,20.25-6,33.25
	s-30.18,15.119-38.34,9.497S145.381,90.556,145.381,90.556z"/>
<path style="fill:none;stroke:#000000;stroke-width:2;stroke-miterlimit:10;" d="M154.391,491.085c4.61,1.247,7.277,0,7.277,0
	s23.665-36.753,29.333-37.753"/>
<path style="fill:none;stroke:#000000;stroke-width:2;stroke-miterlimit:10;" d="M324.334,468.666
	c6.667,17.667,12.001,21.666,12.001,21.666"/>
</svg>
