<?xml version="1.0" standalone="no"?>
<!DOCTYPE svg PUBLIC "-//W3C//DTD SVG 1.1//EN" "http://www.w3.org/Graphics/SVG/1.1/DTD/svg11.dtd" >
<svg xmlns="http://www.w3.org/2000/svg">
<metadata></metadata>
<defs>
<font id="burst_my_bubbleitalic" horiz-adv-x="508" >
<font-face units-per-em="2048" ascent="1638" descent="-410" />
<missing-glyph horiz-adv-x="569" />
<glyph horiz-adv-x="0" />
<glyph horiz-adv-x="682" />
<glyph unicode=" "  horiz-adv-x="569" />
<glyph unicode="&#x09;" horiz-adv-x="569" />
<glyph unicode="&#xa0;" horiz-adv-x="569" />
<glyph unicode="!" horiz-adv-x="212" d="M-24 2l6 20q11 40 63 45q40 0 30 -50q-5 -18 -48 -45h-30zM40 241l24 85l6 37l14 34l105 349q37 144 49 238q26 27 57 27q55 0 18 -132l-22 -109l-161 -546q-6 -21 -53 -27q-44 0 -37 44z" />
<glyph unicode="&#x22;" horiz-adv-x="517" d="M283 1048q28 98 144 140q35 0 45 -35l-7 -25q-77 -60 -83 -80q-11 -37 17 -150q-40 -45 -73 -45q-59 0 -43 195zM448 1048q27 94 155 140q43 -21 36 -45l-12 -25q-67 -43 -75 -70l-4 -15q-7 -25 17 -130q-24 -50 -64 -50q-68 0 -53 195z" />
<glyph unicode="#" horiz-adv-x="1025" d="M193 418q29 45 63 45l117 -10l7 5l5 35l51 180l-3 5l1 5q-230 0 -220 35l3 25q28 45 62 45l183 -10l40 140q23 80 78 80q45 0 23 -75l-43 -150q-4 -15 101 -15h25l101 5l34 135l16 55q21 75 76 75q32 0 27 -45l-56 -215h5q185 0 166 -65q-8 -29 -54 -50q-32 15 -96 15 h-45l-24 -100l-41 -145h110q60 0 43 -60q-25 -35 -55 -35h-120l-13 -45l-42 -180q-25 -40 -56 -40q-60 0 -23 130l36 125q4 14 -213 25l1 5l-18 -10l-51 -250q-10 -34 -62 -40q-49 0 -2 200q28 110 21 110q-170 0 -157 45zM476 478q-12 -40 23 -40l201 -15l1 5l63 235l-4 5 l-36 -5h-85l-109 5z" />
<glyph unicode="$" horiz-adv-x="761" d="M33 325q9 31 53 45q55 0 34 -105q10 -83 106 -155l24 -5l109 345q-179 93 -131 260l10 35q66 231 285 315q20 0 23 10l30 105l8 45q23 45 63 45q50 0 26 -85l-35 -120q4 -13 93 -45q103 -57 81 -135q-10 -35 -56 -55q-45 0 -43 75q-74 50 -106 50l-13 -45l-120 -400 q247 -132 188 -340q-37 -128 -225 -190l-73 -10l-58 5l-9 -30q-22 -60 -67 -60q-42 11 -31 50l21 70q-243 132 -187 325zM319 695q-25 -88 75 -140l94 310l28 100h-15q-127 -76 -164 -205zM335 70q17 -10 52 -10h25q131 23 156 110l7 25q30 103 -131 205h-5z" />
<glyph unicode="%" horiz-adv-x="1001" d="M-92 -27q3 13 147 130q384 372 982 1070q115 130 147 130h5q24 0 34 -40q-18 -32 -635 -715q-272 -316 -573 -585q-52 -40 -77 -40q-39 16 -30 50zM328 1008q42 148 229 225l46 5h15q212 -29 170 -175q-40 -142 -263 -220l-46 -5h-20q-174 23 -131 170zM407 98l5 20 q43 150 230 225l41 5h30q153 0 167 -150l-7 -25q-40 -140 -263 -220l-56 -5q-152 0 -147 150zM424 1013q-19 -65 47 -80h45q151 38 177 130l3 10q15 51 -71 65h-5l-7 -5q-17 10 -52 10q-110 -37 -136 -125zM509 123q-23 -80 57 -80h30q155 36 182 130l3 10q20 70 -140 70 q-107 -42 -129 -120z" />
<glyph unicode="&#x26;" horiz-adv-x="985" d="M62 371q-6 50 9 100q65 228 303 310l47 5q123 0 203 -180h5l4 30l88 325q16 55 71 55q37 -10 21 -65q-58 -203 -153 -605q150 57 213 150l1 5l-2 45q31 40 62 40q54 -21 32 -95q-31 -108 -333 -255l-53 -185q-19 -55 -61 -55q-45 0 -32 60l24 85q17 60 7 60 q-121 -30 -203 -30q-213 0 -253 200zM166 471q-40 -138 90 -190l91 -15q112 0 196 40q21 202 -50 330q-49 55 -89 55h-20q-102 0 -198 -165z" />
<glyph unicode="'" horiz-adv-x="296" d="M251 872q77 97 87 130l1 5q10 35 -27 80l-1 15q27 50 65 50q85 -51 61 -135q-94 -197 -157 -200q-35 0 -29 55z" />
<glyph unicode="(" horiz-adv-x="436" d="M73 156q-36 171 28 395l9 30q103 359 433 655q46 25 72 25q40 0 23 -60q-14 -24 -79 -50q-268 -270 -354 -570l-7 -25q-104 -364 44 -475q60 -15 48 -60q-22 -45 -53 -45q-90 0 -164 180z" />
<glyph unicode=")" horiz-adv-x="468" d="M-30 21q12 45 85 60q218 111 322 475l7 25q86 300 -33 570q-53 26 -53 50q17 60 58 60q28 0 61 -25q169 -296 66 -655l-9 -30q-64 -224 -201 -395q-181 -180 -274 -180q-32 0 -29 45z" />
<glyph unicode="*" horiz-adv-x="1193" d="M108 271q0 9 213 281q-2 26 -121 197l-1 9q5 50 43 62l70 -10q57 -1 211 26l208 266q74 72 95 79q37 12 46 -38q5 -76 -20 -291q145 -4 354 16q87 -10 89 -44q4 -49 -267 -189l-230 -128q-40 -168 -25 -360q-13 -62 -54 -76q-45 -14 -138 133l-123 153l-304 -124 q-43 -3 -46 38zM306 398l1 -9l103 39q-25 54 -35 50q-32 -23 -69 -80zM351 716l1 -4l36 -60l16 5q49 58 47 78l-5 -2q-56 -4 -95 -17zM448 565q57 -92 75 -86q197 77 194 103l19 174l-164 -10q-127 -154 -124 -181zM566 397q90 -129 101 -126l5 2l18 184l-11 -4v5 q-113 -51 -113 -61zM644 856l1 -14l105 10q24 109 20 161l-10 -3q-78 -91 -116 -154zM816 619l5 1q262 127 261 144q-1 9 -165 -11q0 8 -69 2l-5 -2q-14 -5 -27 -134z" />
<glyph unicode="+" horiz-adv-x="749" d="M141 507q14 50 164 50l42 5q19 136 47 235q36 125 91 125h10q11 -2 26 -30l-35 -105l-46 -215l264 15q32 0 30 -50q-12 -45 -122 -45q-179 -12 -181 -20q-26 -229 -39 -275q-30 -105 -85 -105q-24 0 -34 40l25 70l36 265l-162 -10q-40 0 -31 50z" />
<glyph unicode="," horiz-adv-x="260" d="M-14 -106l3 10l39 85l10 35q12 39 -34 90l3 10q12 42 69 50q87 -47 55 -160l-6 -20q-37 -130 -102 -130q-36 13 -37 30z" />
<glyph unicode="-" d="M104 380q26 40 62 40h160q120 0 106 -50q-8 -27 -55 -50l-73 5h-160q-55 0 -40 55z" />
<glyph unicode="." horiz-adv-x="272" d="M24 71q30 40 61 40q34 0 37 -45q-10 -38 -69 -50q-35 0 -29 55z" />
<glyph unicode="/" horiz-adv-x="965" d="M-107 -40q3 12 146 130q384 372 982 1070q115 130 147 130h5q24 0 34 -40q-17 -32 -635 -715q-272 -316 -573 -585q-51 -40 -76 -40q-40 16 -30 50z" />
<glyph unicode="0" horiz-adv-x="761" d="M86 309q4 117 25 190l7 25q75 263 348 465l48 10q192 0 270 -280q0 -102 -28 -200q-117 -410 -411 -510l-46 -5q-171 0 -213 305zM207 504q-77 -269 80 -400l34 -5h15q141 0 289 310l23 65l18 60q74 259 -141 365l-33 5q-213 -148 -276 -370z" />
<glyph unicode="1" horiz-adv-x="236" d="M19 99q94 452 124 555l12 40q83 290 153 290h5q39 -18 30 -50q-52 -95 -88 -220l-27 -95l-131 -580h5q-29 -55 -66 -55q-50 0 -17 115z" />
<glyph unicode="2" horiz-adv-x="789" d="M-14 94q39 133 266 245l68 10q43 0 121 -30q27 41 55 140l20 70q52 179 -120 260h-35q-12 0 -61 -55l-39 -15q-42 11 -32 45q40 71 116 110l63 10q135 0 210 -210q16 -67 -20 -190l-7 -25l-76 -195q146 -178 147 -290q-8 -28 -64 -50q-29 1 -57 115q-30 59 -81 120h-10 q-167 -205 -329 -205q-168 25 -135 140zM79 84q11 -35 80 -35q120 0 230 175q-43 30 -92 30h-5q-101 0 -208 -150z" />
<glyph unicode="3" horiz-adv-x="673" d="M-1 110q8 29 54 50q106 -85 211 -85q146 0 247 165l19 65q30 106 -92 150h-20l-161 -5q-31 16 -21 50q11 39 137 60q204 84 227 165l12 40q30 104 -111 155h-45q-59 0 -130 -70l-26 -5q-35 0 -29 55q89 115 233 115h5q165 0 204 -195l-8 -60l-5 -20q-27 -94 -173 -200 q137 -98 91 -260l-2 -5q-58 -204 -311 -285l-78 -10q-219 28 -228 130z" />
<glyph unicode="4" horiz-adv-x="588" d="M83 389q-10 35 4 85q78 200 118 340l5 70q9 32 68 45q55 -17 13 -165l-104 -275l-7 -25q-6 -18 163 -40l-1 -5l16 5l45 175q105 365 160 365l16 5q24 0 34 -40q-76 -196 -118 -340l-40 -160l13 -5l44 15q32 0 31 -50q-11 -39 -109 -65l-69 -295q-29 -45 -63 -45 q-55 0 -9 160l46 180q-265 35 -256 65z" />
<glyph unicode="5" horiz-adv-x="669" d="M11 129l3 10q11 38 63 45q11 0 81 -85q69 -35 125 -35h35q100 0 159 120l20 70q43 148 -54 230l-18 5h-30q-51 0 -233 -130h-10q-53 0 -31 170q11 144 35 225l3 10q45 160 200 160l163 -10l67 10q38 -10 25 -55q-13 -43 -125 -50l-177 10q-41 -4 -51 -40l-10 -35 q-38 -131 -33 -255h10q123 85 199 85h10q171 0 165 -280l-12 -75q-54 -188 -263 -255l-63 -10q-181 0 -253 165z" />
<glyph unicode="6" horiz-adv-x="540" d="M-3 200l26 55l25 125q107 372 312 580q65 50 119 50q40 0 31 -50q-10 -33 -102 -60q-173 -202 -262 -510l-4 -15h10q125 90 206 90q152 0 125 -225q-119 -260 -299 -260h-10q-109 0 -149 145q-39 0 -28 75zM120 230q-4 -160 85 -160q135 38 159 120l14 30l11 40 q27 93 -63 110h-15q-52 0 -186 -125z" />
<glyph unicode="7" horiz-adv-x="584" d="M177 16q54 88 214 485q58 132 138 270l2 10h-5l-99 -15h-25q-226 30 -212 80l3 10q10 35 66 40l165 -35h40l208 45q47 -12 36 -50q-129 -133 -198 -305l-211 -495q-41 -80 -93 -80q-37 13 -29 40z" />
<glyph unicode="8" horiz-adv-x="632" d="M9 153l8 60l2 10q35 120 226 265q-88 92 -60 190l1 5q40 138 233 200q26 10 68 10q136 0 151 -170l-6 -20q-24 -84 -215 -210l-2 -5q172 -169 134 -300q-40 -140 -285 -210q-23 -10 -58 -10h-15q-168 0 -182 185zM107 198q-1 -135 92 -135h35q195 35 222 130 q27 94 -141 240q-171 -107 -198 -200zM275 678q-18 -62 64 -125q137 57 197 145l7 25q3 11 -59 75h-45q-99 0 -164 -120z" />
<glyph unicode="9" horiz-adv-x="552" d="M97 548q54 190 312 340q61 20 96 20q144 -21 128 -75l-93 -240l-119 -465q-53 -185 -103 -185h-10q-29 0 -35 35l56 160l89 345l-4 5q-140 -100 -218 -100q-122 0 -99 160zM187 533q0 -50 21 -50h20q80 0 221 160q44 65 71 160l-37 10h-5q-112 0 -266 -210l-13 -30z" />
<glyph unicode=":" horiz-adv-x="296" d="M94 265l5 15q34 35 60 35q40 -16 30 -50q-11 -40 -62 -45q-44 6 -33 45zM147 460q31 40 62 40q46 -13 36 -50q-11 -35 -65 -50q-45 17 -33 60z" />
<glyph unicode=";" horiz-adv-x="200" d="M-13 -64l56 70l1 5l-1 50q29 45 63 45q46 0 33 -95q-22 -75 -117 -130q-42 0 -35 55zM61 279q26 50 64 50q27 0 32 -45q-27 -50 -64 -50q-26 0 -32 45z" />
<glyph unicode="&#x3c;" horiz-adv-x="592" d="M111 376q5 16 205 155q180 159 232 165q19 0 35 -35l-3 -10q-7 -25 -144 -120l-156 -125l-3 -10l167 -185q37 0 31 -50q-29 -45 -63 -45q-46 12 -168 165q-22 32 -129 55q-9 21 -4 40z" />
<glyph unicode="=" horiz-adv-x="564" d="M109 270q16 55 171 55l156 5q49 -3 36 -50q-11 -38 -63 -45l-268 -10l-1 -5q-38 0 -31 50zM138 426q15 55 170 55l157 5q49 -3 36 -50q-11 -38 -63 -45l-268 -10l-2 -5q-38 0 -30 50z" />
<glyph unicode="&#x3e;" horiz-adv-x="600" d="M104 142q13 45 290 245q-134 262 -124 300q29 40 67 40q40 -37 112 -220q43 -73 95 -105l3 -25q-13 -45 -119 -65q-119 -73 -267 -215l-26 -5q-41 16 -31 50z" />
<glyph unicode="?" horiz-adv-x="480" d="M37 62q8 27 58 45q42 -10 31 -50q-12 -40 -63 -45q-34 0 -26 50zM99 312q12 43 10 105q16 55 141 55q131 38 151 110l9 30q27 95 -104 125h-30l-59 -15q-46 17 -35 55q22 48 131 55h5q170 0 190 -175q4 -20 -6 -55l-3 -10q-46 -162 -291 -215l-31 -140q-26 -50 -64 -50 q-50 0 -14 125z" />
<glyph unicode="@" horiz-adv-x="717" d="M93 297l10 35q77 268 309 365l100 15h10q165 0 179 -195l-10 -70l-5 -15q-14 -51 -58 -115l-13 -65q-40 -140 -270 -225l-84 -15h-25q-190 0 -143 285zM192 312q-59 -205 66 -205h30q127 0 220 120l2 10q-45 0 -71 30h-10q-93 -90 -151 -90q-81 0 -74 125l4 15 q41 143 243 235l41 5q67 0 67 -65l-38 -95l-3 -10q-12 -45 15 -55q43 47 61 110l7 25q9 150 -102 150l-13 5q-134 0 -239 -170q-26 -38 -46 -110zM294 302q4 -23 13 -25h10q33 0 124 170l3 10h-10q-115 -69 -140 -155z" />
<glyph unicode="A" horiz-adv-x="1057" d="M-93 23q66 104 296 637q252 488 567 488h11h5q264 -7 264 -417q0 -71 -8 -155q-17 -162 -124 -551q-24 -33 -54 -33h-2q-28 1 -28 44q0 40 24 117q40 126 76 336q-144 4 -281 4q-183 0 -355 -7l-78 7q-201 -516 -276 -516h-1h-5q-33 12 -33 35q0 5 2 11zM269 603 q-2 -20 33 -21q209 6 389 6q126 0 238 -3l18 9q7 70 7 130q0 329 -201 334h-9q-253 0 -475 -455z" />
<glyph unicode="B" horiz-adv-x="737" d="M-22 69q9 29 58 45l13 45q71 369 156 735l26 110l46 125l-1 30q18 63 229 85h35q240 0 283 -270l-12 -95l-9 -30q-48 -167 -183 -220l-3 -10q106 -65 107 -190q0 -50 -18 -110l-4 -15q-63 -217 -331 -300q-104 -40 -202 -40q-178 18 -190 105zM120 74q21 -15 45 -15h45 q160 0 344 135q34 50 45 85l10 35q15 52 15 93q0 116 -117 147l-82 25l-135 -15l-63 5l-2 -5l-90 -455zM252 674h5l98 10l97 -10q213 30 243 135l20 50q13 45 13 83q0 139 -166 202l-69 5q-120 0 -133 -45l-36 -110q-29 -98 -72 -320z" />
<glyph unicode="C" horiz-adv-x="881" d="M89 277q-4 43 -4 86q0 146 44 299l6 20q118 411 446 545q108 35 180 35q181 0 191 -120l-1 -5q-8 -28 -65 -50q-16 0 -51 65l-56 15h-60q-187 0 -365 -210q-75 -105 -123 -270l-7 -25q-46 -159 -46 -276q0 -193 125 -269q69 -30 191 -30q132 0 226 90l27 5q27 0 32 -45 q-114 -145 -322 -145q-328 0 -368 285z" />
<glyph unicode="D" horiz-adv-x="769" d="M24 35l22 80q82 283 191 980l6 20q29 100 89 100l88 10h5q173 0 312 -115q77 -122 77 -265q0 -37 -5 -75q-10 -175 -46 -300q-146 -510 -586 -510h-40q-116 0 -116 55q0 9 3 20zM126 60l23 -5h75q325 0 437 390l9 30q47 201 47 338q0 213 -114 267q-117 50 -215 50h-15 q-31 -3 -35 -15l-6 -20q-114 -713 -192 -985z" />
<glyph unicode="E" horiz-adv-x="777" d="M59 172q26 93 132 670l66 265l6 20l51 145l5 35q12 40 72 40l434 -20q44 0 44 -29q0 -7 -2 -16l-6 -20q-25 -30 -53 -30l-404 20q-23 -42 -42 -110l-12 -40q-101 -393 -101 -454q0 -11 3 -11l314 15q18 -26 11 -50q-14 -50 -189 -50l-158 -10q-38 -221 -88 -430 q6 -25 22 -25l133 10h135q98 0 171 20q33 -13 33 -38q0 -6 -2 -12q-19 -65 -249 -65h-115l-133 -10q-87 0 -87 104q0 33 9 76z" />
<glyph unicode="F" horiz-adv-x="645" d="M-14 59l91 350l230 785q21 45 58 45l17 -10l51 5h295l97 5q28 0 28 -34q0 -5 -1 -11l-4 -15q-12 -40 -152 -40h-310l-25 -105l-105 -350l-2 -5l203 10q33 0 33 -33q0 -7 -2 -17q-13 -45 -103 -45l-158 -10l-6 -5l-12 -40l-131 -510q-19 -33 -48 -45h-15q-35 0 -35 37 q0 16 6 38z" />
<glyph unicode="G" horiz-adv-x="949" d="M86 256q-19 74 -19 148q0 81 23 162l6 20q104 363 467 515q81 30 159 30h30q52 -5 52 -36q0 -6 -2 -14q-7 -27 -42 -45h-70q-258 0 -446 -315q-28 -46 -48 -115l-13 -45q-23 -80 -23 -150q0 -191 174 -300l75 -20h60q148 0 355 350l3 10h-5q-218 -20 -377 -60h-10 q-25 18 -17 45q16 59 181 75q86 20 311 40q24 0 24 -35q0 -16 -5 -40l-3 -10q-41 -142 -258 -360q-129 -110 -237 -110h-30q-210 0 -315 260z" />
<glyph unicode="H" horiz-adv-x="785" d="M-14 78l92 320l183 710l22 75q24 60 67 60q32 0 32 -32q0 -10 -3 -23l-17 -60q-51 -179 -105 -420l157 10h200q93 0 125 15l5 35l10 35q35 122 94 415q12 42 68 45q24 0 24 -43q0 -47 -29 -147q-31 -161 -250 -1030q-27 -50 -65 -50q-30 0 -30 40q0 7 1 15 q43 148 143 585l-138 -10h-190q-96 0 -148 -10l-150 -525l-11 -55q-21 -45 -58 -45h-20q-18 0 -18 31q0 22 9 59z" />
<glyph unicode="I" horiz-adv-x="717" d="M-47 56q14 49 144 49l127 8q158 570 246 944l16 40l-4 5l-194 -14q-41 12 -33 40q15 53 185 53l117 5l138 -5q89 5 160 18q29 0 29 -32q0 -6 -1 -12q-17 -58 -232 -58l-69 5l-30 -107q-129 -518 -234 -886h190l56 4q27 0 29 -39q-14 -49 -114 -49h-325l-168 -9 q-27 0 -33 40z" />
<glyph unicode="J" horiz-adv-x="861" d="M12 310l2 5q25 35 55 35q49 0 58 -165q80 -150 217 -150h5q189 0 341 300q41 92 73 205l36 125l78 305q70 245 120 245h15q26 0 32 -45q-21 -40 -69 -190l-78 -305l-14 -50q-122 -423 -265 -540q-158 -145 -302 -145q-186 0 -288 215z" />
<glyph unicode="K" horiz-adv-x="729" d="M-31 -12q53 203 118 535l-3 5l12 26l36 142l33 115l115 417q8 30 60 36q27 0 33 -40l-82 -306l-69 -240l-20 -88h30q137 47 321 248q138 168 188 341l20 71q14 49 64 49q31 0 31 -36q0 -8 -1 -17l-22 -76q-97 -337 -471 -598l-4 -13q189 -120 236 -448q2 -16 1 -33 q0 -37 -7 -78q-28 -39 -62 -39q-32 0 -32 48q0 26 10 67q-16 125 -70 243q-98 187 -196 187q-60 -16 -62 -23l-110 -487q-21 -40 -56 -40h-20q-19 11 -21 32z" />
<glyph unicode="L" horiz-adv-x="777" d="M-21 51q161 718 315 1212q9 34 61 40q27 0 32 -45q-172 -560 -296 -1147h10l17 5q139 -20 349 -20h45q47 0 114 15q26 0 26 -39v-11q-37 -65 -184 -65h-5q-246 10 -367 25l-68 -10q-43 0 -49 40z" />
<glyph unicode="M" horiz-adv-x="1049" d="M-50 41l27 95l24 100l28 80l160 540q63 238 90 385q24 40 62 40q42 0 68 -130l166 -570h10q401 618 534 765l35 15q33 0 33 -45q0 -31 -16 -85q-96 -407 -256 -1210q-10 -33 -62 -40q-28 0 -28 48q0 45 25 132l199 955q-14 -3 -266 -385q-195 -310 -244 -310h-5 q-38 0 -61 135l-129 475h-15l-25 -105l-270 -925q-33 -25 -57 -25q-29 0 -29 40q0 11 2 25z" />
<glyph unicode="N" horiz-adv-x="869" d="M-45 13l110 330l61 230l147 515q51 175 91 175h15q43 0 94 -265l195 -785h10l187 635q54 190 84 365q30 45 63 45q28 0 28 -52q0 -61 -38 -193l-29 -120l-248 -845l-11 -55q-7 -25 -57 -45q-43 0 -62 150l-229 930h-15l-43 -150l-155 -560q-96 -335 -141 -335l-7 -5 l-16 -5q-35 11 -35 32q0 4 1 8z" />
<glyph unicode="O" horiz-adv-x="1133" d="M81 327v14q0 124 33 241l6 20q124 433 474 675q178 74 283 74h10q231 -4 317 -369q4 -46 5 -91q0 -120 -32 -229q-107 -376 -475 -610q-147 -80 -253 -80h-20q-273 0 -348 355zM208 577q-30 -103 -30 -188q0 -218 197 -312q50 -15 90 -15q216 0 458 290q113 147 162 320 q32 110 32 207q0 152 -77 273q-42 100 -180 104h-5q-221 -1 -404 -199q-173 -236 -232 -440z" />
<glyph unicode="P" horiz-adv-x="773" d="M-25 59l25 85l23 100l28 80l160 540q63 238 91 385q30 40 61 40q29 0 29 -51q0 -26 -7 -64q168 115 293 115q216 0 229 -265q-3 -63 -16 -110l-13 -45q-62 -214 -311 -350q-95 -40 -196 -40q-92 0 -153 60h-10l-150 -525q-26 -30 -54 -30q-35 0 -35 37q0 16 6 38z M262 709q10 -135 151 -135q230 0 361 265l20 70q18 61 18 110q0 121 -108 170l-53 5q-169 0 -308 -185l-20 -85z" />
<glyph unicode="Q" horiz-adv-x="1145" d="M89 199q-19 63 -19 133q0 84 27 177l6 20q99 345 392 580q236 145 366 145h5q170 0 301 -225q28 -50 28 -157q0 -84 -17 -203l-20 -90q-68 -234 -293 -445l-3 -10l93 -95l-2 -25q-8 -27 -58 -45q-23 3 -122 100h-10q-194 -115 -318 -115h-35q-206 0 -321 255zM191 504 q-25 -86 -25 -157q0 -200 191 -293q43 -15 81 -15h45q102 0 229 85l4 15q-149 160 -147 185l3 10q19 29 47 40h25l158 -180q61 22 195 225l52 130l19 65q34 120 34 215q0 219 -180 305l-68 25h-20q-169 0 -407 -215q-164 -190 -233 -430z" />
<glyph unicode="R" horiz-adv-x="809" d="M-36 47l29 100l23 100l28 80l159 535q63 238 90 385q7 24 58 45q11 0 36 -30h10q101 65 194 65q213 0 223 -250l-14 -85q-51 -176 -239 -345l-1 -5q49 0 124 -160q4 -22 4 -51q0 -107 -58 -309v-13q0 -51 21 -72q21 -13 14 -40q-13 -45 -53 -45h-5q-70 0 -70 124 q0 27 3 61q49 173 49 268q0 78 -33 102q-56 70 -110 70q-88 -25 -132 -25h-100l-13 -10l-148 -515q-19 -45 -58 -45q-34 0 -34 39q0 11 3 26zM237 652l178 25h45q191 128 245 315q14 47 14 86q0 101 -93 144l-42 10h-40q-68 0 -177 -95l-85 -330z" />
<glyph unicode="S" horiz-adv-x="829" d="M-21 175l6 38q39 67 89 67h15q28 -23 21 -48l-32 -42q24 -147 158 -147h50q201 0 339 170l20 38l9 29q4 13 4 25q0 115 -291 249q-174 116 -174 251q0 31 9 62l10 33q58 203 314 313q57 14 94 14h15q136 0 252 -99l14 -57q-29 -43 -63 -43q-25 0 -52 62q-120 47 -161 47 h-50q-213 -45 -272 -251l-11 -38q-4 -14 -4 -29q0 -132 336 -293q129 -92 129 -203q0 -29 -9 -58q-51 -179 -337 -288q-94 -24 -173 -29q-218 0 -255 227z" />
<glyph unicode="T" horiz-adv-x="849" d="M233 1132l2 25q9 31 57 40q125 -15 245 -15h30l448 10l2 5q37 -10 37 -36q0 -6 -2 -14q-13 -45 -79 -50l-328 -10l-84 -365l-177 -580l-38 -150q-9 -33 -61 -40q-27 0 -27 44q0 36 18 101l212 720q36 127 62 270h-10q-308 0 -308 42q0 1 1 3z" />
<glyph unicode="U" horiz-adv-x="969" d="M114 510q24 156 73 325l82 285q21 50 64 50q33 0 33 -30q0 -11 -4 -25l-80 -280q-93 -323 -93 -509q0 -251 170 -251q284 0 538 585l67 200l68 270q9 34 61 40q27 0 27 -43q0 -37 -20 -107l-41 -160q-140 -489 -431 -755q-155 -125 -296 -125q-235 0 -235 329 q0 89 17 201z" />
<glyph unicode="V" horiz-adv-x="997" d="M292 500l24 800q22 40 67 40q28 0 28 -97q0 -51 -8 -128q-20 -545 -20 -831q0 -80 2 -139h5q44 49 561 840q195 315 220 315l17 5q33 0 41 -30l-3 -10q-107 -183 -820 -1255q-41 -50 -79 -50q-42 0 -42 273q0 111 7 267z" />
<glyph unicode="W" horiz-adv-x="1830" d="M286 537l25 800q21 40 66 40q28 0 28 -100q0 -50 -7 -125q-20 -545 -19 -831q0 -80 1 -139h5q44 49 561 840q195 315 220 315l16 5q57 0 57 -74q0 -14 -2 -31q-24 -557 -24 -877q0 -132 4 -223h5q258 378 750 1135l31 20h20q36 -7 36 -30q0 -5 -2 -10 q-493 -760 -825 -1255q-31 -36 -70 -50q-49 0 -49 203q0 56 4 127v43q0 262 21 832h-10q-698 -1075 -756 -1135q-28 -20 -50 -20q-42 0 -42 280q0 109 6 260z" />
<glyph unicode="X" horiz-adv-x="1057" d="M-58 10q4 13 141 125q337 320 488 515l-189 665q10 35 67 45q33 0 101 -260q89 -323 108 -355q391 441 533 585l28 10q37 -10 37 -36q0 -6 -2 -14q-566 -631 -571 -650q94 -322 214 -560q32 -28 25 -55q-10 -35 -68 -45q-36 18 -108 165l-145 400h-5l-385 -400 q-195 -185 -233 -185q-38 10 -38 37q0 6 2 13z" />
<glyph unicode="Y" horiz-adv-x="953" d="M-17 -7l2 5q34 50 69 50q102 -45 387 -45q270 0 306 125l129 555h-5l-146 -180q-142 -125 -256 -125h-30q-249 0 -260 315q0 155 60 365l77 250h-5q22 45 62 45q35 0 35 -47v-8l-64 -205l-12 -40q-58 -202 -58 -334q0 -168 93 -226q54 -20 84 -20h55q187 0 386 455 q40 90 139 380q24 35 60 35q32 0 33 -40l-15 -35l-17 -60l-248 -1075q-56 -193 -343 -220l-92 -5q-427 11 -427 78q0 4 1 7z" />
<glyph unicode="Z" horiz-adv-x="921" d="M-37 82q44 155 978 1040l3 10l-98 5h-175q-236 0 -320 -15q-32 14 -32 38q0 6 2 12q17 60 302 60h465q34 -5 34 -30q0 -7 -2 -15q-7 -23 -62 -60l-710 -695q-255 -268 -281 -335h5l182 5h475q34 -5 34 -30q0 -7 -2 -15q-11 -39 -79 -50h-435q-189 0 -255 -15 q-35 12 -35 52q0 16 6 38z" />
<glyph unicode="[" horiz-adv-x="569" d="M-40 74l44 155l8 45l17 40l157 530l80 350q8 29 58 45q58 -15 115 -15h30l228 10q31 -15 22 -45q-15 -55 -145 -55l-157 -5h-20l-48 5l-61 -265l-223 -760h5l92 -10l244 15q26 0 32 -45q-17 -60 -187 -60l-116 -5q-195 0 -175 70z" />
<glyph unicode="\" horiz-adv-x="937" d="M284 1340q28 40 66 40q32 0 91 -240q168 -618 330 -995q57 -79 51 -100q-27 -45 -67 -45q-49 26 -114 180q-155 397 -341 1095q-22 31 -16 65z" />
<glyph unicode="]" horiz-adv-x="533" d="M-35 53q29 45 52 45l202 -15l85 10h4l214 760l89 265l-44 -5h-18l-132 5q-112 0 -96 55q8 30 43 45l191 -10h26q48 0 107 15q35 -16 26 -45l-117 -350l-148 -530l-8 -40l-16 -45l-45 -155q-20 -70 -188 -70l-98 5q-147 0 -129 60z" />
<glyph unicode="^" horiz-adv-x="460" d="M117 425q6 20 108 115q109 130 143 130q47 0 42 -150q26 -81 22 -95q-28 -40 -66 -40q-40 0 -51 120h-10q-117 -125 -156 -125q-29 0 -32 45z" />
<glyph unicode="_" horiz-adv-x="504" d="M-54 51q11 38 94 50l143 -10l174 15q40 -17 31 -50q-18 -60 -218 -60l-138 5h-35l-22 -5q-35 0 -29 55z" />
<glyph unicode="`" horiz-adv-x="324" d="M227 834q29 45 63 45q71 -32 96 -205q-10 -35 -68 -45q-15 0 -65 140q-33 42 -26 65z" />
<glyph unicode="a" horiz-adv-x="825" d="M-13 200l14 85q100 349 403 444q63 15 139 15h10q239 0 269 -125l-3 -45q-19 -50 -66 -125q-35 -176 -43 -429q-10 -35 -68 -45q-28 0 -28 67q0 35 8 88q0 50 -11 50q-248 -205 -434 -205q-178 0 -190 225zM91 285q-12 -41 -12 -75q0 -97 96 -140h40q186 0 433 359l15 35 l12 60l34 85q1 2 1 3q0 34 -209 37q-215 0 -336 -175q-38 -65 -74 -189z" />
<glyph unicode="b" horiz-adv-x="801" d="M38 14q-30 0 -30 60q0 82 56 275q122 498 195 750l20 70q28 100 88 100q33 0 32 -45l-37 -95l-4 -15q-97 -338 -176 -685q14 6 87 95q144 140 265 140h20q194 0 219 -265q-3 -63 -17 -110l-8 -30q-60 -207 -291 -280l-104 -15q-106 0 -260 70q-35 -20 -50 -20h-5z M121 149q-6 -23 186 -85l78 -5q150 0 230 120l32 60l22 75q10 36 10 70q0 97 -87 170l-55 15h-35q-160 0 -376 -405z" />
<glyph unicode="c" horiz-adv-x="773" d="M15 228l10 70l1 5q58 201 348 375q64 20 96 20h10q179 -31 179 -85q0 -5 -2 -10q-7 -27 -54 -50q-107 50 -131 50h-30q-117 0 -283 -220q-28 -46 -42 -95q-10 -35 -10 -64q0 -117 161 -141l49 -5l302 25q30 0 30 -26q0 -8 -3 -19q-16 -55 -146 -55q-104 -15 -189 -15h-40 q-256 0 -256 226v14z" />
<glyph unicode="d" horiz-adv-x="757" d="M11 192v8q0 63 15 117l3 10q54 188 298 340q128 70 240 70q54 -5 113 -25l6 5l2 5q10 142 70 333.5t100 191.5h15q12 6 20 6q23 0 23 -44q0 -52 -32 -164q-69 -243 -130 -493l-30 -155l-72 -235l-7 -25l-30 -140q-16 -22 -47 -40h-30q-16 0 -16 33q0 48 34 167l5 20 q-16 -7 -71 -75q-159 -150 -288 -150q-159 0 -191 240zM116 297q-12 -43 -12 -81q0 -105 96 -164l29 -5h15q153 0 328 325q61 141 86 230q-51 40 -128 40q-206 0 -384 -255l-19 -50z" />
<glyph unicode="e" horiz-adv-x="821" d="M43 243q-1 14 -1 29q0 73 21 146l6 20q81 281 318 375q57 15 94 15h25q154 0 184 -125l-9 -65l-1 -5q-52 -181 -362 -250l-71 -5h-20l-74 5l-3 -10q-14 -50 -15 -97q0 -102 70 -183q53 -30 102 -30q122 0 368 170l28 10q34 0 37 -45q-13 -48 -306 -195q-49 -20 -150 -35 q-222 0 -241 275zM185 493q20 -20 49 -20h45q268 29 305 155l7 25q2 8 2 16q0 51 -104 64h-60q-143 0 -244 -240z" />
<glyph unicode="f" horiz-adv-x="569" d="M53 553q13 34 78 34q12 0 25 -1l50 1q23 134 61 267q109 297 394 364l76 4l15 -1q106 -8 175 -111l-1 -15q-10 -30 -63 -52q-91 79 -126 82l-34 3q-11 1 -21 1q-161 0 -278 -188l-23 -50l-21 -59q-55 -184 -55 -225q0 -12 4 -12l148 19q26 -2 26 -35q0 -10 -3 -24 q-15 -41 -168 -48l-7 -5q-14 2 -18 -8q-46 -294 -105 -454q-12 -36 -64 -40q-26 2 -26 32q0 23 14 61q42 113 85 398l-100 3q-42 7 -42 37q0 10 4 22z" />
<glyph unicode="g" horiz-adv-x="732" d="M-105 -296q11 42 68 50q149 -100 276 -100q130 0 249 345l38 115h-5q-166 -150 -308 -150h-30q-184 0 -190 210l18 95l1 5q70 243 332 425q148 65 264 65h5q27 0 121 -30q49 0 49 -30q0 -7 -2 -15l-23 -80l-34 -170l-34 -85l-27 -110q-141 -493 -297 -620 q-86 -65 -164 -65q-143 0 -305 120q7 25 -2 25zM106 269q-15 -52 -15 -91q0 -83 67 -109l37 -10h60q123 0 284 205l56 90l70 280q-30 35 -90 35q-116 0 -246 -75q-174 -153 -222 -320z" />
<glyph unicode="h" horiz-adv-x="961" d="M78 3q-32 0 -32 60q0 72 46 230q191 794 211 1015q10 35 67 45q24 0 24 -55q0 -47 -18 -135q-73 -410 -149 -675h10q116 198 311 300q96 40 162 40q176 0 217 -305q-4 -171 -48 -325l-3 -10q-56 -195 -101 -195l-16 -5q-27 0 -32 45l47 130l16 55q42 145 42 254 q0 145 -74 226q-42 34 -80 35h-25q-143 0 -323 -255q-143 -234 -206 -455q-30 -20 -46 -20z" />
<glyph unicode="i" horiz-adv-x="220" d="M-5 60l187 705l5 35q29 50 64 50q33 -11 33 -47q0 -15 -6 -33l-194 -730q-30 -40 -61 -40q-30 0 -30 38q0 10 2 22zM266 1110q25 50 59 50q35 0 35 -39q0 -7 -1 -16q-7 -26 -49 -50h-15q-33 0 -33 30q0 11 4 25z" />
<glyph unicode="j" horiz-adv-x="284" d="M-812 -517l1 20q10 34 61 40q38 0 42 -100q70 -155 205 -155h60q133 0 297 145q33 47 41 75l258 990l6 20l22 95q29 100 89 100q23 0 33 -40l-25 -55l-266 -1030l-5 -35q-72 -253 -409 -350l-94 -15q-274 0 -316 295zM282 970q25 50 59 50q35 0 35 -39q0 -7 -1 -16 q-7 -26 -49 -50h-15q-33 0 -33 30q0 11 4 25z" />
<glyph unicode="k" horiz-adv-x="721" d="M-9 -1l2 5l173 760q70 299 111 455l12 40q15 55 70 55q27 -7 27 -36q0 -11 -4 -24q-76 -278 -190 -780q170 34 183 80q135 120 161 210l14 50l1 75q10 32 63 45q40 -22 40 -76q0 -28 -10 -64q-35 -124 -197 -285l-1 -5q155 -133 155 -345q0 -57 -11 -119q-16 -55 -63 -80 h-15q-34 0 -41 50l28 45q6 42 6 81q0 164 -106 273l-42 10h-15q-87 -50 -135 -50l-33 5l-83 -360l-6 -20q-16 -55 -66 -55q-30 0 -30 38q0 10 2 22z" />
<glyph unicode="l" horiz-adv-x="280" d="M34 37l2 5l148 673q60 264 142 549l10 35q14 49 69 49q28 -7 28 -34q0 -9 -3 -19q-142 -494 -293 -1231l-9 -31q-14 -49 -64 -49q-31 0 -31 36q0 8 1 17z" />
<glyph unicode="m" horiz-adv-x="1582" d="M12 190l16 55l88 255q29 100 47 250q10 35 67 45q24 0 24 -57.5t-24 -172.5h5q215 235 392 235q162 0 220 -245q207 195 376 195h15q281 0 287 -340q-23 -237 -64 -380q-31 -110 -81 -110q-25 0 -40 35l29 85q58 204 58 347q0 121 -42 198q-74 70 -185 70 q-189 0 -347 -235l-3 -10l-41 -195l-21 -75q-49 -170 -104 -170q-33 0 -36 50l61 160q44 152 44 265q0 154 -81 235q-38 25 -67 25h-30q-134 0 -312 -250q-131 -211 -198 -445q-24 -20 -45 -20l-2 -5q-34 0 -34 56q0 51 28 149z" />
<glyph unicode="n" horiz-adv-x="901" d="M31 188l16 55l88 255q29 100 47 250q10 35 68 45q23 0 23 -56q0 -57 -24 -174h5q215 235 392 235q201 0 221 -330q-6 -143 -38 -255l-22 -75q-49 -170 -104 -170q-33 0 -35 50l61 160q43 152 43 265q0 154 -80 235q-39 25 -68 25h-30q-134 0 -312 -250 q-130 -211 -197 -445q-25 -20 -46 -20l-1 -5q-34 0 -34 57q0 51 27 148z" />
<glyph unicode="o" horiz-adv-x="877" d="M32 278q1 71 12 110l4 15q56 196 327 320q64 30 233 30q118 0 223 -165q19 -64 19 -125q0 -54 -15 -105l-8 -30q-51 -176 -265 -295q-87 -45 -193 -45q-277 0 -337 290zM136 378q-10 -34 -10 -65q0 -130 170 -215q42 -15 80 -15h45q172 0 293 200l19 50l11 40 q13 45 13 84q0 136 -162 196l-39 5l-43 -10l-42 10q-158 0 -309 -205l-22 -60z" />
<glyph unicode="p" horiz-adv-x="793" d="M-116 -497q-31 3 -31 47q0 46 34 138l264 939l9 24q28 75 78 75h6q24 -2 33 -44q110 29 187 29q15 0 29 -1l15 -2q189 -16 246 -268q2 -19 2 -38q0 -63 -23 -125q-71 -193 -384 -290l-145 -13q-44 4 -125 42l-144 -481q-19 -29 -50 -27zM133 119q30 -44 111 -51 q15 -1 30 -1q152 0 316 135q38 48 51 83q21 57 21 107q0 134 -151 218l-58 5q-208 -5 -229 -62q-101 -328 -101 -408q0 -25 10 -26z" />
<glyph unicode="q" horiz-adv-x="693" d="M33 288l20 81l4 10q77 201 333 283q63 14 111 14q13 0 25 -1l119 -32q14 38 65 40q28 -3 28 -33q0 -9 -3 -21l-23 -60q-34 -89 -191 -662l-128 -416q-10 -28 -57 -31q-26 3 -26 42q0 51 43 163q22 95 110 355q-99 -35 -161 -35q-10 0 -18 1q-225 21 -251 302zM138 340 q-10 -26 -10 -52q0 -81 91 -172q50 -31 87 -34l34 -4h7q53 0 147 63l106 398q-58 36 -125 42q-14 1 -28 1q-160 0 -287 -182z" />
<glyph unicode="r" horiz-adv-x="753" d="M11 172l16 55l88 255q28 100 46 250q10 35 68 45q25 0 25 -51q0 -38 -14 -104l-3 -10h10q159 135 359 135q153 0 214 -90l-4 -15q-9 -29 -55 -50q-89 60 -188 60q-199 0 -285 -125q-110 -157 -196 -455l-11 -40q-12 -42 -48 -60h-20q-31 0 -31 52q0 50 29 148z" />
<glyph unicode="s" horiz-adv-x="765" d="M3 165l7 60q7 26 49 50h15q43 -8 43 -37q0 -6 -2 -13l-15 -35q13 -110 113 -110l39 -5h40q184 0 302 145l7 25v8q0 82 -99 82h-40l-190 -15q-185 0 -195 175l8 25q49 173 253 240q90 20 171 20h10q233 0 233 -100q0 -14 -5 -30q-23 -35 -60 -35q-18 2 -42 45 q-44 25 -148 25h-35q-180 0 -247 -95l-33 -60l-4 -15q-4 -13 -4 -24q0 -56 92 -71h35l194 15q178 0 205 -140l-9 -50l-3 -10q-43 -150 -292 -235q-62 -20 -126 -20h-20q-220 0 -247 185z" />
<glyph unicode="t" horiz-adv-x="661" d="M125 773q11 37 61 55q63 -15 219 -20l88 305l8 45q8 29 65 35q28 0 28 -45q0 -20 -6 -50l-55 -175l-31 -110l247 10q33 0 33 -33q0 -7 -2 -17q-14 -50 -149 -50l-152 -5l-128 -500l-61 -195l-5 -35q-10 -35 -66 -40q-25 0 -25 50q0 11 1 25l60 190l128 500l-24 5h-30 q-205 0 -205 48q0 3 1 7z" />
<glyph unicode="u" horiz-adv-x="961" d="M88 393q17 129 85 365l10 35q16 55 66 55q32 0 32 -31q0 -12 -5 -29l-1 -5q-100 -348 -100 -530q0 -157 74 -190q28 -15 65 -15h20q266 0 434 430q107 375 137 375l32 5q30 0 30 -36q0 -12 -4 -29l-90 -295q-50 -175 -50 -500v-25l-2 -5q-25 -40 -61 -40q-32 0 -32 66 q0 29 6 69v140h-15q-72 -114 -216 -195q-118 -55 -186 -55h-35q-203 0 -203 300q0 63 9 140z" />
<glyph unicode="v" horiz-adv-x="786" d="M124 884q18 29 46 40h15q46 0 64 -215q56 -310 81 -555h5q517 734 612 775h15q27 0 32 -45q-221 -241 -662 -880q-29 -20 -51 -20q-47 0 -66 345q-44 180 -91 555z" />
<glyph unicode="w" horiz-adv-x="1125" d="M56 302l24 100l17 60q58 272 119 309l31 5q21 0 30 -35q-35 -104 -89 -294l-23 -80q-27 -116 -27 -188q0 -80 34 -102h10q113 60 274 365l27 60l8 45q33 115 83 115q36 0 36 -47q0 -12 -2 -28l-35 -105q-24 -85 -24 -162q0 -124 62 -228q37 -45 77 -45h15q130 0 282 340 l33 95l27 95l24 135q25 40 61 40q32 0 32 -57q0 -59 -34 -178q-81 -280 -268 -480q-105 -85 -199 -85q-149 0 -202 255q7 25 -11 50q-174 -270 -307 -270q-97 0 -97 171q0 61 12 144z" />
<glyph unicode="x" horiz-adv-x="837" d="M-58 24l433 406l11 23q-129 284 -165 406q34 44 73 44q30 0 50 -79q61 -161 129 -283h6q273 268 393 349l23 4q38 0 38 -33q0 -5 -1 -11l-285 -261q-131 -127 -135 -141q127 -266 159 -411l-2 -8q-8 -29 -63 -44q-40 0 -79 167l-99 212q-374 -351 -425 -379l-23 -5 q-39 12 -39 35q0 5 1 9z" />
<glyph unicode="y" horiz-adv-x="909" d="M-125 -294q10 33 59 50q22 0 52 -60q63 -20 235 -20h110q167 0 295 245l41 110l41 195h-5q-254 -250 -451 -250q-167 0 -198 270q-3 48 -3 90q0 108 20 179l9 30q70 245 150 245q19 0 31 -30l-4 -15q-55 -105 -78 -185l-23 -80q-21 -75 -21 -144q0 -131 76 -240 q43 -25 68 -25h10q171 0 383 255q94 117 154 329q46 125 71 125q3 10 33 10q27 0 27 -32q0 -10 -3 -23l-11 -40l-77 -214l-108 -465q-86 -300 -365 -420l-131 -20q-390 0 -390 110q0 10 3 20z" />
<glyph unicode="z" horiz-adv-x="1153" d="M-39 58q23 70 779 605q11 0 224 155l3 10l-724 -15q-39 4 -39 31q0 7 2 14l5 20q25 30 59 30l714 15q152 0 152 -56q0 -7 -2 -14q-8 -23 -375 -280q-195 -116 -614 -450l-3 -10h5l547 -10q100 0 316 20q21 -29 14 -55q-17 -60 -347 -60l-507 10l-183 -10q-28 0 -28 33 q0 7 2 17z" />
<glyph unicode="{" horiz-adv-x="372" d="M62 550l2 25q12 40 128 60l2 10q4 100 20 190q56 194 222 250h5q40 0 30 -50q-5 -20 -83 -65q-48 -45 -60 -85l-20 -70q-29 -102 2 -220q-13 -44 -79 -50h-25l-3 -10q54 -74 39 -125l-44 -100q-52 -210 5 -210h5l32 5q40 -16 30 -50q-11 -41 -100 -55q-143 44 -69 300 l46 110q6 20 -85 140z" />
<glyph unicode="|" horiz-adv-x="288" d="M43 -28q-60 0 35 330l7 25l235 750q22 50 65 50q45 0 27 -60l-240 -770q-75 -275 -59 -275q-35 -50 -70 -50z" />
<glyph unicode="}" horiz-adv-x="316" d="M-40 55q151 124 184 240l20 70q31 106 -35 175l-4 20q13 27 55 70l3 10q-85 0 -69 55q82 147 94 190l16 55q9 32 -15 140q29 45 63 45q64 0 46 -205l-83 -185q91 -14 79 -55q-7 -25 -73 -100l-3 -10q55 -105 15 -245q-61 -210 -247 -320l-16 -5q-35 0 -30 55z" />
<glyph unicode="&#xad;" d="M104 380q26 40 62 40h160q120 0 106 -50q-8 -27 -55 -50l-73 5h-160q-55 0 -40 55z" />
<glyph unicode="&#xc4;" horiz-adv-x="1090" d="M-132 -88q65 104 295 637q257 497 578 488h5q311 -8 256 -572q-17 -162 -124 -551q-25 -34 -56 -33q-54 2 -3 161q39 126 75 336q-335 9 -636 -3l-78 7q-201 -518 -277 -516h-4q-41 15 -31 46zM230 492q-3 -20 33 -21q355 10 626 3l18 9q43 458 -194 464 q-258 8 -483 -455zM628 1211q50 26 74 -8q8 -47 -7 -59l-34 -26h-17q-56 31 -16 93zM805 1126q-4 68 64 96q44 -12 31 -60q-32 -48 -50 -48h-36z" />
<glyph unicode="&#xd6;" horiz-adv-x="1124" d="M81 327q-2 132 33 255l6 20q124 433 474 675q178 74 283 74h10q231 -4 317 -369q16 -170 -27 -320q-107 -376 -475 -610q-147 -80 -253 -80h-20q-273 0 -348 355zM208 577q-106 -369 167 -500q50 -15 90 -15q216 0 458 290q113 147 162 320q81 281 -45 480 q-42 100 -180 104h-5q-221 -1 -404 -199q-173 -236 -232 -440zM717 1456q50 26 75 -8q7 -47 -8 -59l-34 -26h-17q-56 31 -16 93zM895 1371q-5 68 63 96q45 -12 31 -60q-32 -48 -50 -48h-36z" />
<glyph unicode="&#xdc;" horiz-adv-x="1479" d="M114 510q24 156 73 325l82 285q21 50 64 50q45 0 29 -55l-80 -280q-218 -760 77 -760q284 0 538 585l67 200l68 270q9 34 61 40q50 0 7 -150l-41 -160q-140 -489 -431 -755q-155 -125 -296 -125q-298 0 -218 530zM621 1376q51 26 75 -8q7 -47 -8 -59l-34 -26h-17 q-56 31 -16 93zM799 1291q-5 68 63 96q45 -12 31 -60q-32 -48 -50 -48h-36z" />
<glyph unicode="&#xe4;" horiz-adv-x="852" d="M-6 173l14 85q101 349 403 444q63 15 139 15h10q239 0 269 -125l-3 -45q-19 -50 -65 -125q-36 -176 -44 -429q-10 -35 -67 -45q-42 0 -21 155q0 50 -11 50q-247 -205 -433 -205q-178 0 -191 225zM98 258q-45 -157 84 -215h40q186 0 433 359l15 35l12 60l34 85 q11 37 -208 40q-215 0 -335 -175q-39 -65 -75 -189zM444 850q51 26 75 -8q7 -47 -8 -59l-33 -26h-17q-57 31 -17 93zM622 765q-5 68 63 96q45 -12 31 -60q-32 -48 -50 -48h-36z" />
<glyph unicode="&#xf6;" horiz-adv-x="898" d="M49 270q0 71 11 110l5 15q56 196 327 320q64 30 233 30q118 0 223 -165q35 -121 4 -230l-9 -30q-50 -176 -264 -295q-87 -45 -193 -45q-277 0 -337 290zM153 370q-51 -175 159 -280q43 -15 81 -15h45q172 0 292 200l20 50l11 40q58 203 -150 280l-38 5l-43 -10l-42 10 q-158 0 -309 -205l-22 -60zM454 915q50 26 75 -8q7 -47 -8 -59l-34 -26h-17q-56 31 -16 93zM631 830q-4 68 64 96q45 -12 31 -60q-32 -48 -50 -48h-36z" />
<glyph unicode="&#xfc;" horiz-adv-x="959" d="M107 443q17 129 84 365l10 35q16 55 66 55q45 0 28 -60l-2 -5q-185 -647 -26 -720q29 -15 66 -15h20q266 0 433 430q107 375 137 375l32 5q40 0 26 -65l-89 -295q-53 -182 -51 -525l-1 -5q-26 -40 -62 -40q-46 0 -26 135v140h-15q-72 -114 -216 -195q-118 -55 -186 -55 h-35q-246 0 -193 440zM519 1034q50 26 75 -8q7 -47 -8 -59l-34 -26h-17q-56 31 -16 93zM697 949q-5 68 63 96q45 -12 31 -60q-32 -48 -50 -48h-36z" />
<glyph unicode="&#x2000;" horiz-adv-x="733" />
<glyph unicode="&#x2001;" horiz-adv-x="1467" />
<glyph unicode="&#x2002;" horiz-adv-x="733" />
<glyph unicode="&#x2003;" horiz-adv-x="1467" />
<glyph unicode="&#x2004;" horiz-adv-x="489" />
<glyph unicode="&#x2005;" horiz-adv-x="366" />
<glyph unicode="&#x2006;" horiz-adv-x="244" />
<glyph unicode="&#x2007;" horiz-adv-x="244" />
<glyph unicode="&#x2008;" horiz-adv-x="183" />
<glyph unicode="&#x2009;" horiz-adv-x="293" />
<glyph unicode="&#x200a;" horiz-adv-x="81" />
<glyph unicode="&#x2010;" d="M104 380q26 40 62 40h160q120 0 106 -50q-8 -27 -55 -50l-73 5h-160q-55 0 -40 55z" />
<glyph unicode="&#x2011;" d="M104 380q26 40 62 40h160q120 0 106 -50q-8 -27 -55 -50l-73 5h-160q-55 0 -40 55z" />
<glyph unicode="&#x2012;" d="M104 380q26 40 62 40h160q120 0 106 -50q-8 -27 -55 -50l-73 5h-160q-55 0 -40 55z" />
<glyph unicode="&#x2013;" horiz-adv-x="1198" d="M110 380q80 40 191 40h492q370 0 326 -50q-24 -27 -169 -50l-224 5h-493q-169 0 -123 55z" />
<glyph unicode="&#x2014;" horiz-adv-x="2221" d="M120 380q160 40 381 40h985q739 0 653 -50q-49 -27 -339 -50l-449 5h-985q-339 0 -246 55z" />
<glyph unicode="&#x2018;" horiz-adv-x="252" d="M224 1021q24 84 151 135q43 0 42 -50l-11 -15q-69 -45 -79 -80l-1 -5q-9 -33 19 -130q-27 -55 -66 -55q-68 3 -55 200z" />
<glyph unicode="&#x2019;" horiz-adv-x="236" d="M180 792q77 97 87 130l1 5q10 35 -27 80v15q26 50 64 50q85 -51 61 -135q-94 -197 -157 -200q-35 0 -29 55z" />
<glyph unicode="&#x201c;" horiz-adv-x="477" d="M241 980q28 98 138 140q33 0 41 -35l-8 -25q-74 -60 -79 -80q-11 -37 13 -150q-38 -45 -69 -45q-54 0 -36 195zM395 980q26 94 148 140q40 -21 33 -45l-12 -25q-64 -43 -71 -70l-5 -15q-7 -25 14 -130q-23 -50 -60 -50q-65 0 -47 195z" />
<glyph unicode="&#x201d;" horiz-adv-x="437" d="M230 827q80 105 87 130l4 15q8 27 -30 70l2 25q7 24 58 45q92 -46 65 -140q-93 -195 -156 -195q-37 0 -30 50zM378 822q88 113 98 150q6 20 -32 80l7 25q28 35 60 35q83 -42 55 -140q-93 -195 -146 -195q-30 0 -42 45z" />
<glyph unicode="&#x202f;" horiz-adv-x="293" />
<glyph unicode="&#x205f;" horiz-adv-x="366" />
<glyph unicode="&#x20ac;" horiz-adv-x="1139" d="M37 319q22 39 66 39h126l2 7l-1 24l19 39l11 39h-24q-115 8 -106 39l6 23l31 24l53 -8h78q155 267 409 414q144 84 300 140q21 0 27 -39q-6 -21 -247 -125q-342 -204 -391 -374l6 -8q292 78 407 78h31q59 0 60 -39q-6 -21 -50 -39l-38 8q-128 0 -474 -94l-16 -31l-19 -63 h16l-2 -8q180 39 333 39q37 0 52 -39q-22 -39 -66 -39h-48q-101 0 -291 -31l-2 -8q-34 -118 138 -203q50 -23 150 -23h16q181 0 385 55l30 -32q-16 -55 -243 -78q-3 -10 -194 -23q-309 0 -357 234q-1 63 -13 63h-87q-94 0 -83 39z" />
<glyph unicode="&#x25fc;" horiz-adv-x="905" d="M0 0v905h905v-905h-905z" />
</font>
</defs>
</svg>
